<svg id="apple" xmlns="http://www.w3.org/2000/svg" width="40.749" height="47.706" viewBox="0 0 40.749 47.706">
  <g id="Group_16" data-name="Group 16" transform="translate(19.584)">
    <g id="Group_15" data-name="Group 15">
      <path id="Path_6" data-name="Path 6" d="M257.255,0a11.2,11.2,0,0,0-7.248,3.924c-1.58,1.923-2.88,4.78-2.373,7.555a9.448,9.448,0,0,0,7.314-3.736A10.5,10.5,0,0,0,257.255,0Z" transform="translate(-247.522)" fill="#fff"/>
    </g>
  </g>
  <g id="Group_18" data-name="Group 18" transform="translate(0 11.166)">
    <g id="Group_17" data-name="Group 17">
      <path id="Path_7" data-name="Path 7" d="M76.7,124.679a12.076,12.076,0,0,0-9.115-4.839c-4.279,0-6.088,2.048-9.061,2.048-3.065,0-5.394-2.042-9.094-2.042-3.635,0-7.5,2.221-9.959,6.02-3.45,5.349-2.859,15.406,2.731,23.972,2,3.065,4.672,6.512,8.167,6.542,3.11.03,3.986-1.995,8.2-2.016s5.012,2.042,8.116,2.01c3.5-.027,6.315-3.846,8.316-6.911a34.373,34.373,0,0,0,3.08-5.784C70,140.6,68.7,129.095,76.7,124.679Z" transform="translate(-37.336 -119.84)" fill="#fff"/>
    </g>
  </g>
</svg>
