<svg xmlns="http://www.w3.org/2000/svg" xmlns:xlink="http://www.w3.org/1999/xlink" width="679.516" height="769.811" viewBox="0 0 679.516 769.811">
  <defs>
    <linearGradient id="linear-gradient" x1="0.5" x2="0.5" y2="1" gradientUnits="objectBoundingBox">
      <stop offset="0" stop-color="#56aaff"/>
      <stop offset="1" stop-color="#007fff"/>
    </linearGradient>
  </defs>
  <path id="blob2" data-name="blob2" d="M406.848,17.029c64.216,15.412,142.56,42.811,166.534,93.756,23.974,50.517-5.994,124.579-48.376,175.524-42.383,51.373-96.752,80.056-145.985,108.311S285.693,450.7,235.177,459.693s-107.883-.856-149.838-31.252c-42.383-30.824-69.782-81.769-99.321-139.991C-43.95,230.227-76.058,164.726-73.489,96.657c2.569-68.5,39.814-139.563,98.465-157.116C83.2-77.583,162.4-41.622,227.043-21.5,292.115-1.808,342.632,1.189,406.848,17.029Z" transform="matrix(0.259, 0.966, -0.966, 0.259, 466.173, 87.935)" fill="url(#linear-gradient)"/>
</svg>
