<svg id="facebook" xmlns="http://www.w3.org/2000/svg" width="21.713" height="21.713" viewBox="0 0 21.713 21.713">
  <g id="Group_6266" data-name="Group 6266">
    <path id="Path_6965" data-name="Path 6965" d="M18.533,0H3.181A3.221,3.221,0,0,0,0,3.223v15.31a3.184,3.184,0,0,0,3.181,3.181H18.49a3.221,3.221,0,0,0,3.223-3.181V3.223A3.221,3.221,0,0,0,18.533,0Zm-.876,11.011-.318,1.272a.636.636,0,0,1-.617.482H13.4v5.768a.636.636,0,0,1-.636.636H11.493a.636.636,0,0,1-.636-.636V12.765H8.312a.636.636,0,0,1-.636-.636V10.857a.636.636,0,0,1,.636-.636h2.545V7.676a3.817,3.817,0,0,1,3.817-3.817h1.908a.636.636,0,0,1,.636.636V5.768a.636.636,0,0,1-.636.636H14.674A1.272,1.272,0,0,0,13.4,7.676v2.545h3.638A.636.636,0,0,1,17.657,11.011Z" fill="#fff"/>
  </g>
</svg>
