<svg xmlns="http://www.w3.org/2000/svg" width="44.722" height="47.706" viewBox="0 0 44.722 47.706">
  <g id="Group_6337" data-name="Group 6337" transform="translate(-8391 -1840.5)">
    <g id="Group_8" data-name="Group 8" transform="translate(8394.008 1840.5)">
      <g id="Group_7" data-name="Group 7">
        <path id="Path_2" data-name="Path 2" d="M54.214.763A6.057,6.057,0,0,0,48.3.778l21.735,20.05,7.3-7.3Z" transform="translate(-48.302 0)" fill="#fff"/>
      </g>
    </g>
    <g id="Group_10" data-name="Group 10" transform="translate(8391 1843.329)">
      <g id="Group_9" data-name="Group 9">
        <path id="Path_3" data-name="Path 3" d="M16.849,30.365a5.56,5.56,0,0,0-.835,2.913V69.491a5.578,5.578,0,0,0,.778,2.841L38.649,50.475Z" transform="translate(-16.014 -30.365)" fill="#fff"/>
      </g>
    </g>
    <g id="Group_12" data-name="Group 12" transform="translate(8417.935 1855.526)">
      <g id="Group_11" data-name="Group 11">
        <path id="Path_4" data-name="Path 4" d="M319.893,165.12l-6.965-3.843L305.1,169.1l9.591,8.846,5.2-2.871a5.634,5.634,0,0,0,0-9.955Z" transform="translate(-305.102 -161.277)" fill="#fff"/>
      </g>
    </g>
    <g id="Group_14" data-name="Group 14" transform="translate(8393.91 1865.46)">
      <g id="Group_13" data-name="Group 13">
        <path id="Path_5" data-name="Path 5" d="M69.163,267.9,47.246,289.818a6.043,6.043,0,0,0,6.011.057l24.856-13.718Z" transform="translate(-47.246 -267.901)" fill="#fff"/>
      </g>
    </g>
  </g>
</svg>
