<svg xmlns="http://www.w3.org/2000/svg" width="21.713" height="21.713" viewBox="0 0 21.713 21.713">
  <g id="instagram" transform="translate(0.001 0)">
    <path id="Path_7368" data-name="Path 7368" d="M15.835,0H5.877A5.884,5.884,0,0,0,0,5.878v9.958a5.884,5.884,0,0,0,5.878,5.877h9.958a5.884,5.884,0,0,0,5.877-5.877V5.878A5.884,5.884,0,0,0,15.835,0ZM10.856,16.794a5.937,5.937,0,1,1,5.937-5.937A5.944,5.944,0,0,1,10.856,16.794ZM16.935,6.32a1.754,1.754,0,1,1,1.755-1.754A1.756,1.756,0,0,1,16.935,6.32Zm0,0" fill="#fff"/>
    <path id="Path_7369" data-name="Path 7369" d="M150.684,146.02a4.664,4.664,0,1,0,4.664,4.664A4.669,4.669,0,0,0,150.684,146.02Zm0,0" transform="translate(-139.828 -139.827)" fill="#fff"/>
    <path id="Path_7370" data-name="Path 7370" d="M388.474,96.3a.481.481,0,1,0,.482.481A.482.482,0,0,0,388.474,96.3Zm0,0" transform="translate(-371.539 -92.217)" fill="#fff"/>
  </g>
</svg>