<svg xmlns="http://www.w3.org/2000/svg" width="31.012" height="21.713" viewBox="0 0 31.012 21.713">
  <g id="Group_6264" data-name="Group 6264" transform="translate(-362.999 -6554.781)">
    <path id="youtube" d="M30.374-2.684A3.885,3.885,0,0,0,27.64-5.418c-2.427-.664-12.134-.664-12.134-.664s-9.707,0-12.134.639A3.964,3.964,0,0,0,.639-2.684,40.938,40.938,0,0,0,0,4.775a40.788,40.788,0,0,0,.639,7.459,3.886,3.886,0,0,0,2.733,2.733c2.452.664,12.134.664,12.134.664s9.707,0,12.134-.639a3.885,3.885,0,0,0,2.734-2.733A40.951,40.951,0,0,0,31.013,4.8a38.861,38.861,0,0,0-.639-7.485ZM12.416,9.424V.126l8.072,4.649Zm0,0" transform="translate(362.998 6560.863)" fill="#fff"/>
  </g>
</svg>
